# xmcd
#
# Track frame offsets:
#	150
#	41350
#	57898
#	87502
#	118847
#
# Disc length: 1892 seconds
#
# Revision: 0
# Processed by: cddbd v1.5.2PL0 Copyright (c) Steve Scherf et al.
# Submitted via: EasyCDDAExtractor 15.2.5.1
#
DISCID=3c076205
DTITLE=JOSE GONZALEZ - IN OUR NATURE 2/2
DYEAR=1900
DGENRE=
TTITLE0=KILLING FOR LOVE [TODD TERJE BROKEBACK MIX]
TTITLE1=HOW LOW [PECHENGA NORD-NORSKA MIX]
TTITLE2=KILLING FOR LOVE [BEATFANATIC REMIX]
TTITLE3=IN OUR NATURE [LANBERG and SKOGEHALL MIX]
TTITLE4=STORM [POCKETKNIFE'S TUBA 303 REMIX]
EXTD=
EXTT0=
EXTT1=
EXTT2=
EXTT3=
EXTT4=
PLAYORDER=
